Coordinates
version=1
nRows=30
nColumns=38
inDegrees=no

Units are S.I. units (second, meters, Newtons, ...)
If the header above contains a line with 'inDegrees', this indicates whether rotational values are in degrees (yes) or radians (no).

endheader
time	pelvis_tilt	pelvis_list	pelvis_rotation	pelvis_tx	pelvis_ty	pelvis_tz	hip_flexion_r	hip_adduction_r	hip_rotation_r	knee_angle_r	ankle_angle_r	subtalar_angle_r	mtp_angle_r	hip_flexion_l	hip_adduction_l	hip_rotation_l	knee_angle_l	ankle_angle_l	subtalar_angle_l	mtp_angle_l	lumbar_extension	lumbar_bending	lumbar_rotation	arm_flex_r	arm_add_r	arm_rot_r	elbow_flex_r	pro_sup_r	wrist_flex_r	wrist_dev_r	arm_flex_l	arm_add_l	arm_rot_l	elbow_flex_l	pro_sup_l	wrist_flex_l	wrist_dev_l
1.23	0.353443	1.48403	-2.00254	0.674716	0.313816	1.03408	-0.104586	-0.13404	0.0532475	0.961208	-0.613892	0	0	0.152798	0.0576025	-0.444318	0.356355	-0.102766	0	0	-0.548544	-0.0492779	0.00320529	-0.0692404	-0.383241	0.23229	0.855903	0.90956	0	0	-0.12951	-0.474254	0.108901	0.806821	1.2012	0	0
1.24	0.282563	1.48516	-1.93592	0.6746	0.300692	1.03608	-0.0701676	-0.130626	0.0616849	1.01208	-0.568187	0	0	0.13276	0.0531076	-0.450011	0.346649	-0.0957221	0	0	-0.547307	-0.0406448	0.00635777	-0.070924	-0.392003	0.230308	0.865507	0.91366	0	0	-0.126675	-0.474879	0.109524	0.815697	1.21322	0	0
1.25	0.200926	1.48661	-1.85536	0.67482	0.287602	1.03808	-0.0366634	-0.126788	0.0629298	1.05991	-0.509035	0	0	0.113186	0.0477801	-0.453673	0.336133	-0.0897025	0	0	-0.545236	-0.0295135	0.00690447	-0.0724014	-0.400454	0.227443	0.874123	0.920342	0	0	-0.12473	-0.474944	0.107602	0.825738	1.22542	0	0
1.26	0.116051	1.48759	-1.76784	0.675369	0.274592	1.04019	-0.00483585	-0.123352	0.0574139	1.10242	-0.453092	0	0	0.0938392	0.0423184	-0.454291	0.32582	-0.0854606	0	0	-0.542908	-0.016774	0.00417867	-0.0730541	-0.408289	0.224564	0.881264	0.928296	0	0	-0.122887	-0.475353	0.104811	0.836464	1.23611	0	0
1.27	0.0483968	1.48693	-1.69356	0.676224	0.26151	1.04236	0.0239646	-0.12854	0.0343533	1.13945	-0.406419	0	0	0.0734127	0.0388485	-0.453697	0.315432	-0.0834839	0	0	-0.540652	-0.00420587	-0.00241738	-0.0743391	-0.415342	0.221408	0.888116	0.935362	0	0	-0.121001	-0.476969	0.102539	0.847717	1.2439	0	0
1.28	-0.0433559	1.48831	-1.59601	0.676897	0.248873	1.04489	0.0547932	-0.116649	0.03715	1.16746	-0.358188	0	0	0.0556256	0.0332858	-0.450645	0.304365	-0.0836361	0	0	-0.537267	0.00941968	-0.00694145	-0.0724617	-0.421654	0.219963	0.890586	0.942953	0	0	-0.116297	-0.477338	0.0994066	0.856544	1.25116	0	0
1.29	-0.107135	1.48744	-1.52475	0.677535	0.236106	1.04737	0.0818309	-0.113524	0.0258382	1.18944	-0.30355	0	0	0.0352192	0.0304997	-0.446771	0.291844	-0.0834096	0	0	-0.53462	0.022422	-0.00777552	-0.08058	-0.424874	0.200899	0.899204	0.961532	0	0	-0.102945	-0.482975	0.117243	0.861257	1.24238	0	0
1.3	-0.171523	1.4861	-1.45289	0.678027	0.223401	1.04993	0.107778	-0.108853	0.0145942	1.20387	-0.276767	0	0	0.0143775	0.0270876	-0.443161	0.278245	-0.0867242	0	0	-0.532939	0.0334458	-0.0159371	-0.0765319	-0.430024	0.20347	0.899691	0.967854	0	0	-0.101209	-0.484074	0.106608	0.873578	1.25272	0	0
1.31	-0.232723	1.48461	-1.38455	0.678298	0.210818	1.05236	0.133366	-0.103074	0.00364723	1.21292	-0.241692	0	0	-0.00629787	0.0234986	-0.438956	0.263795	-0.090234	0	0	-0.531397	0.0436889	-0.0232235	-0.0727681	-0.434162	0.205166	0.899918	0.975514	0	0	-0.0989769	-0.486437	0.0971242	0.887048	1.26117	0	0
1.32	-0.141448	1.47817	-1.4611	0.678655	0.19683	1.05333	0.101853	-0.138587	-0.0286786	1.11376	-0.197829	0	0	-0.0358248	0.031391	-0.439429	0.250521	-0.0917392	0	0	-0.53036	0.0442967	-0.0424801	-0.0806513	-0.434171	0.198675	0.910183	0.98609	0	0	-0.105331	-0.498792	0.0924597	0.909836	1.26169	0	0
1.33	-0.195947	1.47518	-1.40007	0.678624	0.184331	1.0556	0.123326	-0.130266	-0.0426808	1.11194	-0.16595	0	0	-0.058712	0.0272057	-0.43202	0.234523	-0.0953896	0	0	-0.531198	0.0540649	-0.0466106	-0.0801251	-0.437311	0.195437	0.913057	0.994807	0	0	-0.0998173	-0.504206	0.0903049	0.923527	1.26295	0	0
1.34	-0.388124	1.47752	-1.21019	0.678206	0.173473	1.05866	0.201739	-0.0850677	-0.0307389	1.20259	-0.148918	0	0	-0.0696608	0.0122363	-0.421073	0.218145	-0.101099	0	0	-0.529875	0.0713508	-0.0365198	-0.0699947	-0.443447	0.198004	0.907028	1.00156	0	0	-0.0845542	-0.50155	0.0861835	0.929276	1.26977	0	0
1.35	-0.439093	1.47492	-1.1514	0.678193	0.161127	1.06031	0.223044	-0.0792094	-0.0502678	1.19175	-0.123029	0	0	-0.0892735	0.00700767	-0.415737	0.204941	-0.104103	0	0	-0.529085	0.0811506	-0.0405846	-0.0700183	-0.446467	0.196458	0.909433	1.00785	0	0	-0.0777843	-0.506715	0.0830508	0.943101	1.27455	0	0
1.36	-0.479627	1.47039	-1.10023	0.678422	0.148774	1.06188	0.241425	-0.0768738	-0.0897438	1.17496	-0.100263	0	0	-0.110766	0.00122569	-0.409157	0.19159	-0.107457	0	0	-0.530728	0.0924484	-0.0463298	-0.0711466	-0.449331	0.193295	0.913844	1.01398	0	0	-0.0698284	-0.512406	0.0812879	0.957473	1.2769	0	0
1.37	-0.413456	1.46096	-1.14721	0.678604	0.135286	1.06249	0.204662	-0.0846358	-0.145634	1.04554	-0.0636233	0	0	-0.142965	0.000562042	-0.405271	0.179581	-0.107984	0	0	-0.536713	0.0994637	-0.0563485	-0.0889139	-0.449222	0.174497	0.932489	1.01843	0	0	-0.0582727	-0.530413	0.102222	0.974822	1.25973	0	0
1.38	-0.570165	1.46412	-0.989733	0.678586	0.124642	1.0642	0.279696	-0.0697967	-0.144624	1.11757	-0.0772827	0	0	-0.148608	-0.010708	-0.395729	0.164341	-0.115989	0	0	-0.532718	0.114093	-0.051487	-0.0774637	-0.450743	0.174735	0.92366	1.03836	0	0	-0.0464659	-0.522733	0.0823226	0.98273	1.28332	0	0
1.39	-0.610142	1.462	-0.938839	0.678602	0.112584	1.06493	0.294498	-0.0657109	-0.163707	1.07898	-0.0728367	0	0	-0.164613	-0.0173707	-0.393922	0.155127	-0.115964	0	0	-0.531426	0.123502	-0.0541063	-0.07901	-0.454787	0.177216	0.926112	1.0311	0	0	-0.0326511	-0.530287	0.0896169	0.993744	1.2796	0	0
1.4	-0.637859	1.45912	-0.899097	0.678658	0.100574	1.06556	0.304062	-0.061776	-0.181803	1.03231	-0.0712996	0	0	-0.1817	-0.0236255	-0.390138	0.145425	-0.116671	0	0	-0.532297	0.132739	-0.0587407	-0.0800201	-0.455522	0.174723	0.928215	1.03391	0	0	-0.0204359	-0.535436	0.0890077	1.00569	1.28434	0	0
1.41	-0.662168	1.4571	-0.864051	0.678523	0.0884511	1.06593	0.310921	-0.057756	-0.197772	0.977321	-0.0738207	0	0	-0.197687	-0.0292766	-0.388327	0.137118	-0.117232	0	0	-0.532565	0.140394	-0.0617469	-0.0816095	-0.45588	0.172064	0.929723	1.03591	0	0	-0.00715674	-0.540284	0.0898799	1.01632	1.28855	0	0
1.42	-0.675737	1.45481	-0.839993	0.678278	0.0762686	1.06613	0.314498	-0.053718	-0.210932	0.917609	-0.0812675	0	0	-0.213762	-0.0346651	-0.388163	0.130916	-0.117548	0	0	-0.533803	0.146974	-0.0644674	-0.0833099	-0.45584	0.169488	0.931168	1.03731	0	0	0.00667726	-0.545336	0.0914789	1.02665	1.29306	0	0
1.43	-0.689504	1.45372	-0.817139	0.677792	0.0641431	1.06598	0.314371	-0.0468621	-0.206922	0.844259	-0.0938284	0	0	-0.22762	-0.039591	-0.389665	0.127293	-0.117444	0	0	-0.534385	0.151997	-0.0664003	-0.0845537	-0.455233	0.167079	0.932139	1.03794	0	0	0.0204475	-0.550344	0.0929836	1.0367	1.29771	0	0
1.44	-0.69257	1.45233	-0.80442	0.677306	0.0518562	1.06557	0.310001	-0.0413523	-0.209561	0.764159	-0.110193	0	0	-0.241523	-0.044674	-0.392669	0.126324	-0.116216	0	0	-0.535765	0.1564	-0.0692444	-0.0859813	-0.454194	0.164599	0.933313	1.03819	0	0	0.0333771	-0.555482	0.0940952	1.04725	1.30246	0	0
1.45	-0.692577	1.44924	-0.793866	0.67695	0.0394637	1.06518	0.299697	-0.0361435	-0.222929	0.683384	-0.123203	0	0	-0.256138	-0.0514883	-0.39534	0.127029	-0.113887	0	0	-0.538915	0.162072	-0.072492	-0.0862232	-0.453412	0.16344	0.933373	1.03814	0	0	0.0459361	-0.559978	0.0948	1.05791	1.3074	0	0
1.46	-0.621038	1.45743	-0.854753	0.675533	0.0259781	1.06213	0.267621	-0.0390248	-0.185456	0.528509	-0.146237	0	0	-0.267024	-0.0463228	-0.403603	0.133386	-0.102797	0	0	-0.531391	0.151355	-0.0819093	-0.096832	-0.44938	0.162298	0.93911	1.02711	0	0	0.0531848	-0.575668	0.105154	1.07306	1.30125	0	0
1.47	-0.617028	1.45908	-0.849892	0.674646	0.0132092	1.06051	0.259082	-0.0336047	-0.191667	0.432438	-0.177862	0	0	-0.276646	-0.0504092	-0.406596	0.138154	-0.0942025	0	0	-0.529135	0.151403	-0.0907868	-0.0940889	-0.443357	0.162362	0.934231	1.03918	0	0	0.0557518	-0.58027	0.0941854	1.0869	1.31135	0	0
1.48	-0.640119	1.46129	-0.820123	0.673866	0.000638251	1.05893	0.258666	-0.0352355	-0.191264	0.367048	-0.194181	0	0	-0.283774	-0.0550742	-0.406778	0.141797	-0.0890039	0	0	-0.525975	0.153347	-0.0932348	-0.0924556	-0.44174	0.164695	0.930354	1.03729	0	0	0.0651142	-0.583802	0.0941093	1.09577	1.31509	0	0
1.49	-0.631432	1.46498	-0.821263	0.672554	-0.0126494	1.05647	0.257104	-0.0326996	-0.21123	0.282161	-0.217454	0	0	-0.292712	-0.0576002	-0.408174	0.146903	-0.08126	0	0	-0.520858	0.150675	-0.098953	-0.0938701	-0.437565	0.166631	0.927545	1.03519	0	0	0.0703177	-0.591471	0.0950383	1.10684	1.31557	0	0
1.5	-0.630182	1.47235	-0.8184	0.67105	-0.0259621	1.05354	0.250883	-0.0382537	-0.194921	0.195228	-0.227427	0	0	-0.298562	-0.0569381	-0.409142	0.151905	-0.0731518	0	0	-0.512613	0.144897	-0.102912	-0.0946616	-0.433377	0.169448	0.923248	1.03203	0	0	0.0746928	-0.598333	0.0959911	1.11657	1.31471	0	0
1.51	-0.616711	1.47983	-0.828551	0.66985	-0.0393167	1.05067	0.253	-0.0448827	-0.187704	0.153026	-0.217059	0	0	-0.305328	-0.0546202	-0.409583	0.156524	-0.0680442	0	0	-0.506068	0.138924	-0.105734	-0.0959681	-0.430512	0.171291	0.920265	1.02883	0	0	0.0799412	-0.603382	0.0977097	1.12536	1.31571	0	0
1.52	-0.584702	1.48806	-0.858306	0.668312	-0.0529852	1.04749	0.245874	-0.0503796	-0.182136	0.0824287	-0.216478	0	0	-0.312235	-0.0511705	-0.411402	0.162536	-0.0626411	0	0	-0.499207	0.130614	-0.108256	-0.0985679	-0.42723	0.173411	0.918069	1.02446	0	0	0.0838785	-0.609792	0.100811	1.13437	1.31654	0	0
